<svg xmlns="http://www.w3.org/2000/svg" fill="none" viewBox="-0.5 -0.5 16 16" id="Sneaker-Move-Duotone--Streamline-Phosphor.svg" height="16" width="16"><desc>Sneaker Move Duotone Streamline Icon: https://streamlinehq.com</desc><g id="sneaker-move-duotone"><path id="Vector" fill="#c4c4c4" d="M14.305546875 11.919275390625V13.216412109375C14.305546875 13.360828125 14.248177734375 13.4993203125 14.146095703125 13.60140234375S13.905521484374999 13.760859375 13.76110546875 13.760859375H8.592966796875L0.8536933593749999 6.0215859375C0.799939453125 5.96746875 0.758150390625 5.902652343750001 0.73105078125 5.831349609375C0.7039453124999999 5.7600468750000005 0.6921328125 5.6838398437499995 0.69636328125 5.6076796875C0.70059375 5.53151953125 0.720791015625 5.45709375 0.7556308593750001 5.38923046875C0.790470703125 5.321373046875 0.839185546875 5.261595703125 0.898611328125 5.213765625L6.138884765625001 1.2386425781250001C6.138884765625001 2.249408203125 6.5404160156249995 3.21877734375 7.255130859375 3.93350390625C7.9698515625 4.648224609375 8.939232421875001 5.04975 9.949998046875 5.04975V7.049906249999999C9.950267578125 7.7580234375 10.147763671875 8.452048828125 10.5204375 9.054140625C10.893041015625 9.656296875 11.42612109375 10.142689453125 12.05971875 10.458802734375L14.00746875 11.432677734375002C14.097298828125 11.478275390625 14.172703125 11.547896484375 14.22537890625 11.633783203125C14.277984375 11.719740234375 14.305751953125 11.818552734375 14.305546875 11.919275390625Z" stroke-width="1"></path><path id="Vector_2" fill="#000" d="M14.248382812500001 10.945400390625L12.299953125 9.971525390625C11.75612109375 9.70182421875 11.298720703125 9.2851875 10.979607421875 8.768783203125C10.660494140625 8.25237890625 10.492400390625 7.6569609375 10.494439453125 7.049906249999999V5.049744140625C10.494439453125 4.9053515625 10.4370703125 4.76687109375 10.33498828125 4.664765624999999C10.232900390625 4.562666015625 10.094408203124999 4.505302734375 9.949998046875 4.505302734375C9.083923828125 4.504400390625 8.253509765625001 4.1599453125 7.641076171875 3.5475234375C7.028712890625 2.9351015625 6.684216796875 2.104734375 6.68333203125 1.2386367187499998C6.683261718750001 1.1373515625 6.654884765625 1.038099609375 6.601458984375 0.952048828125C6.548103515625 0.8659921875000001 6.471744140625 0.79653515625 6.381029296875 0.751494140625C6.29030859375 0.706453125 6.188771484375001 0.6876093750000001 6.087978515625 0.6970839843750001C5.98712109375 0.70655859375 5.8908925781249994 0.743970703125 5.8101796875 0.805119140625L0.567181640625 4.7775234375L0.5535703125 4.78841015625C0.434982421875 4.884474609375 0.337904296875 5.004380859375 0.268640625 5.1403652343749995C0.1993828125 5.27635546875 0.15948046875 5.4253828125 0.151517578125 5.57778515625C0.143560546875 5.730193359375 0.167724609375 5.882560546875 0.222451171875 6.02501953125C0.27718359375 6.167484375 0.361236328125 6.29684765625 0.46917773437500004 6.40473046875L8.207771484375 14.1460546875C8.258337890624999 14.19662109375 8.318431640624999 14.236705078124999 8.384513671875 14.2639921875C8.450595703125 14.291349609375 8.52144140625 14.30537109375 8.592966796875 14.30530078125H13.76110546875C14.0498671875 14.30530078125 14.3268515625 14.1905625 14.5310859375 13.986392578124999C14.735249999999999 13.782158203125 14.849994140625 13.505173828125 14.849994140625 13.216412109375V11.919275390625C14.850673828125 11.7169453125 14.79459375 11.5185 14.688292968750002 11.34638671875C14.581992187500001 11.1742734375 14.429613281249999 11.03537109375 14.248382812500001 10.945400390625ZM13.76110546875 13.216412109375H8.81823046875L1.2388886718749998 5.637064453125L2.114765625 4.97283984375L4.75463671875 7.61272265625C4.856794921875 7.715080078125 4.995421875 7.772654296875 5.140031250000001 7.772718750000001C5.284634765625 7.772859375 5.423349609374999 7.7155546875 5.5257070312500005 7.613402343749999C5.628064453125 7.51125 5.685638671874999 7.372623046875 5.6857734375 7.228001953125C5.685837890625001 7.08338671875 5.6285390625 6.944689453125 5.5263867187499995 6.842332031250001L2.99063671875 4.30862109375L5.712861328125 2.2458574218750003C5.9192050781250005 3.1078359375 6.38300390625 3.88659375 7.04259375 4.47861328125C7.702189453125 5.070638671875 8.52633984375 5.44787109375 9.40555078125 5.56016015625V7.049906249999999C9.40283203125 7.8593554687500005 9.627005859375 8.653359374999999 10.0525546875 9.341876953125C10.478173828125 10.03039453125 11.088158203125 10.58586328125 11.81335546875 10.945400390625L13.76110546875 11.919275390625V13.216412109375ZM3.334998046875 12.1275234375H0.6944414062500001C0.550048828125 12.1275234375 0.4115625 12.070154296875 0.30946289062500004 11.968072265625C0.20736328125 11.865990234375 0.15 11.727498046875 0.15 11.58308203125S0.20736328125 11.300173828125 0.30946289062500004 11.198091796875001C0.4115625 11.096009765625 0.550048828125 11.038640625 0.6944414062500001 11.038640625H3.334998046875C3.4793906249999997 11.038640625 3.617876953125 11.096009765625 3.7199824218749997 11.198091796875001C3.8220761718749996 11.300173828125 3.8794453124999997 11.438666015625 3.8794453124999997 11.58308203125S3.8220761718749996 11.865990234375 3.7199824218749997 11.968072265625C3.617876953125 12.070154296875 3.4793906249999997 12.1275234375 3.334998046875 12.1275234375ZM6.057216796874999 13.760859375C6.057216796874999 13.90526953125 5.99984765625 14.043767578125 5.897765625 14.145849609375S5.65719140625 14.30530078125 5.512775390625 14.30530078125H1.783330078125C1.6389375 14.30530078125 1.500451171875 14.247931640625001 1.3983515625 14.145849609375C1.2962519531249999 14.043767578125 1.2388886718749998 13.905275390625 1.2388886718749998 13.760859375S1.2962519531249999 13.477951171874999 1.3983515625 13.375869140625C1.500451171875 13.273787109375 1.6389375 13.216412109375 1.783330078125 13.216412109375H5.512775390625C5.65719140625 13.216412109375 5.79568359375 13.273787109375 5.897765625 13.375869140625S6.05722265625 13.616443359375001 6.05722265625 13.760859375Z" stroke-width="1"></path></g></svg>